<svg width="129" height="60" fill="none" xmlns="http://www.w3.org/2000/svg"><path d="M50.317 51.214c.5-.509.5-1.336 0-1.844a1.267 1.267 0 00-1.812 0c-5.085 5.173-11.844 8.021-19.03 8.021-14.84 0-26.912-12.287-26.912-27.391 0-15.104 12.072-27.391 26.912-27.391 14.409 0 26.211 11.585 26.88 26.087h-5.161c-.667-11.62-10.14-20.87-21.72-20.87C17.463 7.826 7.69 17.773 7.69 30s9.773 22.174 21.786 22.174c5.82 0 11.29-2.306 15.403-6.496.5-.508.5-1.335 0-1.844a1.267 1.267 0 00-1.812 0c-3.629 3.696-8.458 5.731-13.592 5.731-10.6 0-19.222-8.776-19.222-19.565 0-10.79 8.622-19.565 19.222-19.565 10.168 0 18.495 8.081 19.16 18.26h-5.127c-.65-7.301-6.692-13.043-14.032-13.043-7.774 0-14.097 6.436-14.097 14.348 0 7.912 6.323 14.348 14.097 14.348 3.765 0 7.304-1.492 9.967-4.203.5-.509.5-1.336 0-1.844a1.267 1.267 0 00-1.812 0c-2.178 2.217-5.075 3.438-8.156 3.438-6.358 0-11.533-5.267-11.533-11.74 0-6.471 5.175-11.738 11.534-11.738 5.92 0 10.756 4.58 11.402 10.434h-7.796c-.53-1.515-1.94-2.608-3.61-2.608-2.119 0-3.844 1.756-3.844 3.913s1.725 3.913 3.845 3.913c1.668 0 3.078-1.093 3.609-2.609h24.587c.707 0 1.281-.584 1.281-1.304 0-16.542-13.222-30-29.474-30C13.223 0 0 13.458 0 30s13.223 30 29.475 30c7.87 0 15.273-3.12 20.842-8.786z" fill="#1EB980"/><path d="M51.667 39.9c0 2.062-1.031 3.093-3.093 3.093-2.062 0-3.092-1.031-3.092-3.093v-4.73c0-.176.065-.329.194-.459a.627.627 0 01.458-.194h.321c.176 0 .328.065.458.194.13.13.195.283.195.459v4.822c0 .595.118 1.027.355 1.294.245.26.622.39 1.134.39.512 0 .886-.13 1.122-.39.245-.267.367-.699.367-1.294V35.17c0-.176.065-.329.195-.459a.627.627 0 01.458-.194h.275c.175 0 .328.065.458.194.13.13.195.283.195.459v4.73zM54.94 35.822v2.76c0 .054.03.089.091.104.29.038.573.057.848.057.618 0 1.088-.133 1.409-.4.328-.276.492-.665.492-1.169 0-1.016-.634-1.523-1.901-1.523-.275 0-.558.019-.848.057-.061.015-.091.053-.091.114zM54 42.878a.647.647 0 01-.642-.653v-6.998c0-.183.062-.348.184-.493a.65.65 0 01.458-.24 20.055 20.055 0 011.879-.092c1.145 0 2.004.23 2.577.687.573.45.859 1.108.859 1.97 0 .955-.279 1.677-.836 2.165-.55.489-1.367.733-2.451.733-.252 0-.584-.015-.997-.046-.061 0-.091.031-.091.092v2.222a.627.627 0 01-.195.458.627.627 0 01-.458.195H54zM61.505 42.237l-1.467-7.079a.495.495 0 01.104-.447.543.543 0 01.423-.194h.332c.191 0 .355.06.493.183a.763.763 0 01.252.458l.95 6.025c0 .008.004.011.012.011.015 0 .023-.004.023-.011l.916-6.025a.762.762 0 01.252-.458.716.716 0 01.493-.183h.687c.191 0 .355.06.493.183a.763.763 0 01.252.458l.927 6.025c0 .008.004.011.012.011.007 0 .011-.004.011-.011l.95-6.025a.763.763 0 01.253-.458.716.716 0 01.492-.183h.287a.51.51 0 01.412.194c.107.13.145.28.115.447l-1.466 7.079a.796.796 0 01-.275.458.76.76 0 01-.504.183h-.607a.76.76 0 01-.504-.183.763.763 0 01-.252-.458l-.951-6.025c0-.008-.004-.012-.011-.012-.008 0-.012.004-.012.012l-.95 6.025a.742.742 0 01-.264.458.716.716 0 01-.493.183h-.607a.76.76 0 01-.504-.183.796.796 0 01-.275-.458zM75.746 38.697c0-1.985-.725-2.978-2.176-2.978-1.45 0-2.176.993-2.176 2.978 0 1.986.725 2.978 2.176 2.978 1.45 0 2.176-.992 2.176-2.978zm.607 3.162c-.68.756-1.607 1.134-2.783 1.134s-2.107-.378-2.795-1.134c-.68-.756-1.02-1.81-1.02-3.162 0-1.351.34-2.405 1.02-3.16.688-.757 1.62-1.135 2.795-1.135 1.176 0 2.104.378 2.783 1.134.688.756 1.031 1.81 1.031 3.161 0 1.352-.343 2.406-1.03 3.162zM80.263 35.822v2.486c0 .061.035.092.104.092h.572c1.36 0 2.04-.485 2.04-1.455 0-.863-.63-1.294-1.89-1.294-.23 0-.47.019-.722.057-.07.015-.104.053-.104.114zm-.927 7.056a.627.627 0 01-.458-.195.627.627 0 01-.195-.458v-6.998c0-.183.06-.348.183-.493a.65.65 0 01.458-.24 20.055 20.055 0 011.879-.092c1.122 0 1.962.21 2.52.63.557.413.836.997.836 1.753 0 .542-.15 1.019-.447 1.431-.29.413-.683.703-1.18.87-.007 0-.011.005-.011.012 0 .016.004.023.011.023.367.23.68.68.94 1.352l.687 1.798a.424.424 0 01-.058.412.4.4 0 01-.355.195h-.355a.949.949 0 01-.538-.16.945.945 0 01-.344-.447l-.641-1.764c-.138-.366-.294-.607-.47-.721-.175-.115-.477-.172-.904-.172h-.527c-.07 0-.104.034-.104.103v2.508a.627.627 0 01-.194.458.59.59 0 01-.447.195h-.286zM86.584 42.878a.647.647 0 01-.641-.653V35.17a.647.647 0 01.64-.653h.31c.176 0 .328.065.458.194.13.13.195.283.195.459v2.966c0 .008.004.012.011.012.008 0 .012-.004.012-.012l2.302-3.092a1.202 1.202 0 011.03-.527h.574c.13 0 .225.06.286.183.061.122.05.233-.034.332l-2.635 3.413a.127.127 0 000 .16l2.76 3.746a.3.3 0 01.035.344.31.31 0 01-.298.183h-.573c-.435 0-.775-.175-1.019-.527l-2.428-3.436c0-.008-.004-.011-.012-.011-.007 0-.011.003-.011.011v3.31a.627.627 0 01-.195.458.627.627 0 01-.458.195h-.31zM94.737 35.822v2.486c0 .061.035.092.104.092h.572c1.36 0 2.04-.485 2.04-1.455 0-.863-.63-1.294-1.89-1.294-.23 0-.47.019-.722.057-.07.015-.103.053-.103.114zm-.927 7.056a.627.627 0 01-.458-.195.627.627 0 01-.195-.458v-6.998c0-.183.061-.348.183-.493a.65.65 0 01.458-.24c.65-.061 1.275-.092 1.879-.092 1.122 0 1.962.21 2.52.63.557.413.836.997.836 1.753 0 .542-.15 1.019-.447 1.431-.29.413-.683.703-1.18.87-.007 0-.011.005-.011.012 0 .016.004.023.011.023.367.23.68.68.94 1.352l.687 1.798a.424.424 0 01-.058.412.4.4 0 01-.355.195h-.355a.95.95 0 01-.538-.16.946.946 0 01-.344-.447l-.641-1.764c-.138-.366-.294-.607-.47-.721-.175-.115-.477-.172-.904-.172h-.527c-.07 0-.103.034-.103.103v2.508a.627.627 0 01-.195.458.59.59 0 01-.447.195h-.286zM103.403 35.937l-1.008 3.596a.076.076 0 00.012.07c.015.022.034.034.057.034h1.901c.023 0 .042-.012.058-.035a.075.075 0 00.011-.069l-1.008-3.596c0-.008-.004-.011-.011-.011-.008 0-.012.003-.012.011zm-2.966 6.941a.436.436 0 01-.378-.195.442.442 0 01-.058-.423l2.371-7.125a.98.98 0 01.332-.447.889.889 0 01.527-.171h.413c.198 0 .374.057.527.171a.88.88 0 01.332.447l2.371 7.125a.443.443 0 01-.058.423.436.436 0 01-.378.195h-.412a.87.87 0 01-.515-.172.9.9 0 01-.31-.458l-.366-1.294c-.008-.061-.05-.092-.126-.092h-2.589c-.068 0-.11.03-.126.092l-.366 1.294a.812.812 0 01-.31.458.835.835 0 01-.515.172h-.366zM109.603 35.845v5.704c0 .054.031.088.092.104.244.038.473.057.687.057.894 0 1.55-.24 1.97-.722.42-.489.63-1.29.63-2.405 0-1-.214-1.733-.641-2.2-.428-.465-1.081-.698-1.959-.698-.214 0-.443.02-.687.057-.061.016-.092.05-.092.103zm-.939 7.067a.719.719 0 01-.469-.24.756.756 0 01-.184-.504v-6.941c0-.191.061-.355.184-.493a.7.7 0 01.469-.252 15.19 15.19 0 011.638-.08c1.359 0 2.398.355 3.116 1.065.725.71 1.088 1.749 1.088 3.116 0 1.466-.363 2.57-1.088 3.31-.718.733-1.757 1.1-3.116 1.1-.603 0-1.149-.027-1.638-.08zM118.325 35.937l-1.008 3.596a.075.075 0 00.011.07c.015.022.034.034.057.034h1.902c.023 0 .042-.012.057-.035a.075.075 0 00.011-.069l-1.008-3.596c0-.008-.003-.011-.011-.011s-.011.003-.011.011zm-2.967 6.941a.439.439 0 01-.378-.195.44.44 0 01-.057-.423l2.371-7.125a.965.965 0 01.332-.447.887.887 0 01.527-.171h.412c.199 0 .374.057.527.171a.88.88 0 01.332.447l2.371 7.125a.443.443 0 01-.057.423.439.439 0 01-.378.195h-.412a.87.87 0 01-.516-.172.892.892 0 01-.309-.458l-.367-1.294c-.007-.061-.049-.092-.126-.092h-2.588c-.069 0-.111.03-.126.092l-.367 1.294a.815.815 0 01-.309.458.84.84 0 01-.515.172h-.367zM124.513 35.822v2.486c0 .061.035.092.103.092h.573c1.359 0 2.039-.485 2.039-1.455 0-.863-.63-1.294-1.89-1.294-.229 0-.47.019-.722.057-.068.015-.103.053-.103.114zm-.927 7.056a.629.629 0 01-.459-.195.63.63 0 01-.194-.458v-6.998c0-.183.061-.348.183-.493a.65.65 0 01.458-.24 20.055 20.055 0 011.879-.092c1.122 0 1.962.21 2.519.63.558.413.837.997.837 1.753a2.38 2.38 0 01-.447 1.431c-.29.413-.683.703-1.18.87-.007 0-.011.005-.011.012 0 .016.004.023.011.023.367.23.68.68.939 1.352l.688 1.798a.424.424 0 01-.058.412.4.4 0 01-.355.195h-.355a.948.948 0 01-.538-.16.95.95 0 01-.344-.447l-.641-1.764c-.138-.366-.294-.607-.47-.721-.175-.115-.477-.172-.905-.172h-.527c-.068 0-.103.034-.103.103v2.508a.63.63 0 01-.194.458.592.592 0 01-.447.195h-.286z" fill="#1EB980"/></svg>