<svg height="512pt" viewBox="0 0 512 512" width="512pt" xmlns="http://www.w3.org/2000/svg" xmlns:xlink="http://www.w3.org/1999/xlink"><linearGradient id="a" gradientUnits="userSpaceOnUse" x1="256" x2="256" y1="0" y2="512"><stop offset="0" stop-color="#2af598"/><stop offset="1" stop-color="#009efd"/></linearGradient><path d="m452 0h-392c-33.085938 0-60 26.914062-60 60v392c0 33.085938 26.914062 60 60 60h392c33.085938 0 60-26.914062 60-60v-392c0-33.085938-26.914062-60-60-60zm20 452c0 11.027344-8.972656 20-20 20h-392c-11.027344 0-20-8.972656-20-20v-392c0-11.027344 8.972656-20 20-20h392c11.027344 0 20 8.972656 20 20zm-79-137h40v40h-40zm0-237h40v40h-40zm0 79h40v40h-40zm-315 158h40v40h-40zm315 79h40v40h-40zm-315-1h40v40h-40zm1-314h40v40h-40zm0 77h40v40h-40zm314 80h40v40h-40zm-314-1h40v40h-40zm220.660156-73.570312 29.339844-16.429688v45l-10.589844 6.765625c-1.839844.980469-15.347656 7.882813-36.410156 10.921875v109.3125c0 27.0625-21.9375 49-49 49s-49-21.9375-49-49 21.9375-49 49-49c3.074219 0 6.082031.296875 9 .839844v-99.722656h20c21.589844 0 36.492188-7.113282 37.660156-7.6875zm0 0" fill="url(#a)"/></svg>