<svg width="130" height="60" viewBox="0 0 130 60" fill="none" xmlns="http://www.w3.org/2000/svg">
<path d="M50.6312 51.214C51.1341 50.7053 51.1341 49.8783 50.6312 49.3696C50.1283 48.8609 49.3107 48.8609 48.8078 49.3696C43.6911 54.5426 36.8902 57.3913 29.6586 57.3913C14.726 57.3913 2.57886 45.1044 2.57886 30C2.57886 14.8956 14.726 2.60866 29.6586 2.60866C44.1578 2.60866 56.0342 14.1939 56.7073 28.6956H51.5132C50.8428 17.0765 41.3107 7.8261 29.6587 7.8261C17.5709 7.8261 7.73706 17.7731 7.73706 30C7.73706 42.2269 17.5709 52.1739 29.6587 52.1739C35.5157 52.1739 41.0192 49.8678 45.1586 45.6782C45.6615 45.1695 45.6615 44.3426 45.1586 43.8339C44.6557 43.3252 43.8381 43.3252 43.3352 43.8339C39.6833 47.5303 34.8244 49.5651 29.6586 49.5651C18.9917 49.5651 10.3159 40.7895 10.3159 29.9999C10.3159 19.2103 18.9917 10.4346 29.6586 10.4346C39.8895 10.4346 48.2687 18.5164 48.9368 28.6955H43.7787C43.1237 21.394 37.0449 15.6522 29.6587 15.6522C21.8365 15.6522 15.4741 22.0878 15.4741 30C15.4741 37.9122 21.8365 44.3478 29.6587 44.3478C33.4473 44.3478 37.0089 42.8556 39.6885 40.1452C40.1914 39.6365 40.1914 38.8095 39.6885 38.3008C39.1856 37.7921 38.368 37.7921 37.8651 38.3008C35.6729 40.5182 32.7586 41.739 29.6586 41.739C23.26 41.739 18.053 36.4721 18.053 29.9999C18.053 23.5277 23.26 18.2607 29.6586 18.2607C35.6161 18.2607 40.4827 22.8416 41.1326 28.6955H33.2873C32.7534 27.1798 31.335 26.0868 29.656 26.0868C27.5231 26.0868 25.7875 27.8424 25.7875 29.9999C25.7875 32.1573 27.5231 33.9129 29.656 33.9129C31.335 33.9129 32.7534 32.8198 33.2873 31.3043H58.0278C58.7397 31.3044 59.3174 30.72 59.3174 30C59.3174 13.4583 46.0122 7.2306e-07 29.6587 0C13.3052 -7.2306e-07 7.14834e-07 13.4583 0 30C-7.14834e-07 46.5417 13.3052 60 29.6587 60C37.5788 60.0001 45.027 56.8801 50.6312 51.214Z" fill="#70D944"/>
<path d="M52.0189 40.0049C52.0189 42.1122 50.9773 43.1659 48.8939 43.1659C46.8106 43.1659 45.7689 42.1122 45.7689 40.0049V35.1698C45.7689 34.9902 45.8345 34.8341 45.9657 34.7015C46.0968 34.5688 46.2512 34.5024 46.4286 34.5024H46.7527C46.9302 34.5024 47.0845 34.5688 47.2157 34.7015C47.3469 34.8341 47.4124 34.9902 47.4124 35.1698V40.0985C47.4124 40.7073 47.532 41.1483 47.7712 41.4215C48.0182 41.6868 48.4001 41.8195 48.9171 41.8195C49.4341 41.8195 49.8121 41.6868 50.0513 41.4215C50.2983 41.1483 50.4217 40.7073 50.4217 40.0985V35.1698C50.4217 34.9902 50.4873 34.8341 50.6185 34.7015C50.7496 34.5688 50.904 34.5024 51.0814 34.5024H51.3592C51.5367 34.5024 51.691 34.5688 51.8222 34.7015C51.9534 34.8341 52.0189 34.9902 52.0189 35.1698V40.0049Z" fill="#70D944"/>
<path d="M55.3261 35.8371V38.6585C55.3261 38.7132 55.3569 38.7483 55.4187 38.7639C55.7119 38.8029 55.9974 38.8224 56.2751 38.8224C56.9002 38.8224 57.3747 38.6859 57.6988 38.4127C58.0306 38.1317 58.1965 37.7337 58.1965 37.2185C58.1965 36.1805 57.556 35.6615 56.2751 35.6615C55.9974 35.6615 55.7119 35.681 55.4187 35.72C55.3569 35.7356 55.3261 35.7746 55.3261 35.8371ZM54.377 43.0488C54.1995 43.0488 54.0452 42.9824 53.914 42.8498C53.7906 42.7171 53.7288 42.561 53.7288 42.3815V35.2283C53.7288 35.041 53.7906 34.8732 53.914 34.7249C54.0375 34.5766 54.1918 34.4946 54.377 34.479C55.0329 34.4166 55.6656 34.3854 56.2751 34.3854C57.4326 34.3854 58.3006 34.6195 58.8793 35.0878C59.458 35.5483 59.7474 36.2195 59.7474 37.1015C59.7474 38.0771 59.4657 38.8146 58.9025 39.3141C58.3469 39.8137 57.5213 40.0634 56.4256 40.0634C56.171 40.0634 55.8353 40.0478 55.4187 40.0166C55.3569 40.0166 55.3261 40.0478 55.3261 40.1102V42.3815C55.3261 42.561 55.2605 42.7171 55.1293 42.8498C54.9981 42.9824 54.8438 43.0488 54.6663 43.0488H54.377Z" fill="#70D944"/>
<path d="M61.9599 42.3932L60.4785 35.1581C60.4399 34.9863 60.4746 34.8341 60.5826 34.7015C60.6984 34.5688 60.8411 34.5024 61.0109 34.5024H61.3465C61.5394 34.5024 61.7053 34.5649 61.8442 34.6898C61.9831 34.8146 62.068 34.9707 62.0988 35.1581L63.0595 41.3161C63.0595 41.3239 63.0633 41.3278 63.0711 41.3278C63.0865 41.3278 63.0942 41.3239 63.0942 41.3161L64.0201 35.1581C64.051 34.9707 64.1359 34.8146 64.2748 34.6898C64.4137 34.5649 64.5796 34.5024 64.7725 34.5024H65.4669C65.6598 34.5024 65.8257 34.5649 65.9646 34.6898C66.1035 34.8146 66.1884 34.9707 66.2192 35.1581L67.1567 41.3161C67.1567 41.3239 67.1606 41.3278 67.1683 41.3278C67.176 41.3278 67.1799 41.3239 67.1799 41.3161L68.1405 35.1581C68.1714 34.9707 68.2563 34.8146 68.3952 34.6898C68.534 34.5649 68.6999 34.5024 68.8928 34.5024H69.1822C69.352 34.5024 69.4908 34.5688 69.5989 34.7015C69.7069 34.8341 69.7455 34.9863 69.7146 35.1581L68.2331 42.3932C68.1945 42.5805 68.1019 42.7366 67.9553 42.8615C67.8087 42.9863 67.639 43.0488 67.4461 43.0488H66.8327C66.6397 43.0488 66.47 42.9863 66.3234 42.8615C66.1845 42.7366 66.0996 42.5805 66.0688 42.3932L65.1081 36.2351C65.1081 36.2273 65.1042 36.2234 65.0965 36.2234C65.0888 36.2234 65.085 36.2273 65.085 36.2351L64.1243 42.3932C64.0934 42.5805 64.0047 42.7366 63.8581 42.8615C63.7192 42.9863 63.5533 43.0488 63.3604 43.0488H62.747C62.5541 43.0488 62.3843 42.9863 62.2377 42.8615C62.0911 42.7366 61.9985 42.5805 61.9599 42.3932Z" fill="#70D944"/>
<path d="M76.3512 38.7756C76.3512 36.7463 75.6182 35.7317 74.1521 35.7317C72.6861 35.7317 71.953 36.7463 71.953 38.7756C71.953 40.8049 72.6861 41.8195 74.1521 41.8195C75.6182 41.8195 76.3512 40.8049 76.3512 38.7756ZM76.9646 42.0068C76.2779 42.7795 75.3404 43.1659 74.1521 43.1659C72.9638 43.1659 72.0225 42.7795 71.328 42.0068C70.6413 41.2342 70.2979 40.1571 70.2979 38.7756C70.2979 37.3941 70.6413 36.3171 71.328 35.5444C72.0225 34.7717 72.9638 34.3854 74.1521 34.3854C75.3404 34.3854 76.2779 34.7717 76.9646 35.5444C77.6591 36.3171 78.0063 37.3941 78.0063 38.7756C78.0063 40.1571 77.6591 41.2342 76.9646 42.0068Z" fill="#70D944"/>
<path d="M80.9157 35.8371V38.3776C80.9157 38.44 80.9505 38.4712 81.0199 38.4712H81.5986C82.9721 38.4712 83.6588 37.9756 83.6588 36.9844C83.6588 36.1024 83.0222 35.6615 81.7491 35.6615C81.5176 35.6615 81.2745 35.681 81.0199 35.72C80.9505 35.7356 80.9157 35.7746 80.9157 35.8371ZM79.9782 43.0488C79.8008 43.0488 79.6464 42.9824 79.5153 42.8498C79.3841 42.7171 79.3185 42.561 79.3185 42.3815V35.2283C79.3185 35.041 79.3802 34.8732 79.5037 34.7249C79.6272 34.5766 79.7815 34.4946 79.9667 34.479C80.6225 34.4166 81.2552 34.3854 81.8648 34.3854C82.9991 34.3854 83.8479 34.6 84.4111 35.0293C84.9744 35.4507 85.256 36.0478 85.256 36.8205C85.256 37.3746 85.1056 37.8624 84.8046 38.2839C84.5114 38.7054 84.1141 39.002 83.6125 39.1737C83.6048 39.1737 83.6009 39.1776 83.6009 39.1854C83.6009 39.201 83.6048 39.2088 83.6125 39.2088C83.9829 39.4429 84.2992 39.9034 84.5616 40.5902L85.256 42.4283C85.3101 42.5766 85.2908 42.7171 85.1982 42.8498C85.1133 42.9824 84.9937 43.0488 84.8394 43.0488H84.4806C84.28 43.0488 84.0986 42.9941 83.9366 42.8849C83.7745 42.7678 83.6588 42.6156 83.5894 42.4283L82.9412 40.6254C82.8023 40.2507 82.6441 40.0049 82.4667 39.8878C82.2892 39.7707 81.9844 39.7122 81.5523 39.7122H81.0199C80.9505 39.7122 80.9157 39.7473 80.9157 39.8176V42.3815C80.9157 42.561 80.8502 42.7171 80.719 42.8498C80.5955 42.9824 80.4451 43.0488 80.2676 43.0488H79.9782Z" fill="#70D944"/>
<path d="M87.3022 43.0488C87.1247 43.0488 86.9704 42.9824 86.8392 42.8498C86.7158 42.7171 86.6541 42.561 86.6541 42.3815V35.1698C86.6541 34.9902 86.7158 34.8341 86.8392 34.7015C86.9704 34.5688 87.1247 34.5024 87.3022 34.5024H87.6147C87.7922 34.5024 87.9465 34.5688 88.0777 34.7015C88.2089 34.8341 88.2744 34.9902 88.2744 35.1698V38.202C88.2744 38.2098 88.2783 38.2137 88.286 38.2137C88.2937 38.2137 88.2976 38.2098 88.2976 38.202L90.624 35.041C90.8786 34.682 91.2258 34.5024 91.6657 34.5024H92.2444C92.3755 34.5024 92.472 34.5649 92.5337 34.6898C92.5955 34.8146 92.5839 34.9278 92.499 35.0293L89.8369 38.5181C89.7984 38.5727 89.7984 38.6273 89.8369 38.682L92.6263 42.5102C92.7112 42.6195 92.7228 42.7366 92.661 42.8615C92.5993 42.9863 92.499 43.0488 92.3601 43.0488H91.7814C91.3416 43.0488 90.9982 42.8693 90.7513 42.5102L88.2976 38.998C88.2976 38.9902 88.2937 38.9863 88.286 38.9863C88.2783 38.9863 88.2744 38.9902 88.2744 38.998V42.3815C88.2744 42.561 88.2089 42.7171 88.0777 42.8498C87.9465 42.9824 87.7922 43.0488 87.6147 43.0488H87.3022Z" fill="#70D944"/>
<path d="M95.5416 35.8371V38.3776C95.5416 38.44 95.5764 38.4712 95.6458 38.4712H96.2245C97.598 38.4712 98.2847 37.9756 98.2847 36.9844C98.2847 36.1024 97.6481 35.6615 96.375 35.6615C96.1435 35.6615 95.9004 35.681 95.6458 35.72C95.5764 35.7356 95.5416 35.7746 95.5416 35.8371ZM94.6041 43.0488C94.4267 43.0488 94.2723 42.9824 94.1412 42.8498C94.01 42.7171 93.9444 42.561 93.9444 42.3815V35.2283C93.9444 35.041 94.0061 34.8732 94.1296 34.7249C94.253 34.5766 94.4074 34.4946 94.5926 34.479C95.2484 34.4166 95.8811 34.3854 96.4907 34.3854C97.625 34.3854 98.4738 34.6 99.037 35.0293C99.6003 35.4507 99.8819 36.0478 99.8819 36.8205C99.8819 37.3746 99.7315 37.8624 99.4305 38.2839C99.1373 38.7054 98.74 39.002 98.2384 39.1737C98.2307 39.1737 98.2268 39.1776 98.2268 39.1854C98.2268 39.201 98.2307 39.2088 98.2384 39.2088C98.6088 39.4429 98.9251 39.9034 99.1875 40.5902L99.8819 42.4283C99.9359 42.5766 99.9167 42.7171 99.8241 42.8498C99.7392 42.9824 99.6196 43.0488 99.4653 43.0488H99.1065C98.9059 43.0488 98.7245 42.9941 98.5625 42.8849C98.4004 42.7678 98.2847 42.6156 98.2153 42.4283L97.5671 40.6254C97.4282 40.2507 97.27 40.0049 97.0926 39.8878C96.9151 39.7707 96.6103 39.7122 96.1782 39.7122H95.6458C95.5764 39.7122 95.5416 39.7473 95.5416 39.8176V42.3815C95.5416 42.561 95.4761 42.7171 95.3449 42.8498C95.2214 42.9824 95.071 43.0488 94.8935 43.0488H94.6041Z" fill="#70D944"/>
<path d="M104.298 35.9541L103.28 39.6302C103.272 39.6537 103.276 39.6771 103.291 39.7005C103.307 39.7239 103.326 39.7356 103.349 39.7356H105.27C105.293 39.7356 105.313 39.7239 105.328 39.7005C105.344 39.6771 105.347 39.6537 105.34 39.6302L104.321 35.9541C104.321 35.9463 104.317 35.9424 104.31 35.9424C104.302 35.9424 104.298 35.9463 104.298 35.9541ZM101.3 43.0488C101.138 43.0488 101.011 42.9824 100.918 42.8498C100.826 42.7171 100.807 42.5727 100.861 42.4166L103.256 35.1346C103.326 34.9473 103.438 34.7951 103.592 34.6781C103.754 34.561 103.932 34.5024 104.124 34.5024H104.541C104.742 34.5024 104.919 34.561 105.074 34.6781C105.236 34.7951 105.347 34.9473 105.409 35.1346L107.805 42.4166C107.859 42.5727 107.84 42.7171 107.747 42.8498C107.655 42.9824 107.527 43.0488 107.365 43.0488H106.949C106.763 43.0488 106.59 42.9902 106.428 42.8732C106.273 42.7483 106.169 42.5922 106.115 42.4049L105.745 41.082C105.737 41.0195 105.695 40.9883 105.618 40.9883H103.002C102.932 40.9883 102.89 41.0195 102.874 41.082L102.504 42.4049C102.458 42.5922 102.354 42.7483 102.192 42.8732C102.037 42.9902 101.864 43.0488 101.671 43.0488H101.3Z" fill="#70D944"/>
<path d="M110.563 35.8605V41.6907C110.563 41.7454 110.594 41.7805 110.656 41.7961C110.903 41.8351 111.134 41.8546 111.35 41.8546C112.253 41.8546 112.917 41.6088 113.341 41.1171C113.766 40.6176 113.978 39.798 113.978 38.6585C113.978 37.6361 113.762 36.8868 113.33 36.4107C112.898 35.9346 112.238 35.6966 111.35 35.6966C111.134 35.6966 110.903 35.7161 110.656 35.7551C110.594 35.7707 110.563 35.8059 110.563 35.8605ZM109.614 43.0839C109.421 43.0605 109.263 42.9785 109.14 42.8381C109.016 42.6898 108.955 42.5181 108.955 42.3229V35.2283C108.955 35.0332 109.016 34.8654 109.14 34.7249C109.263 34.5766 109.421 34.4907 109.614 34.4673C110.108 34.4127 110.66 34.3854 111.269 34.3854C112.643 34.3854 113.692 34.7483 114.418 35.4741C115.151 36.2 115.517 37.2615 115.517 38.6585C115.517 40.1571 115.151 41.2849 114.418 42.042C113.692 42.7912 112.643 43.1659 111.269 43.1659C110.66 43.1659 110.108 43.1385 109.614 43.0839Z" fill="#70D944"/>
<path d="M119.376 35.9541L118.358 39.6302C118.35 39.6537 118.354 39.6771 118.369 39.7005C118.385 39.7239 118.404 39.7356 118.427 39.7356H120.348C120.371 39.7356 120.391 39.7239 120.406 39.7005C120.422 39.6771 120.425 39.6537 120.418 39.6302L119.399 35.9541C119.399 35.9463 119.395 35.9424 119.388 35.9424C119.38 35.9424 119.376 35.9463 119.376 35.9541ZM116.378 43.0488C116.216 43.0488 116.089 42.9824 115.996 42.8498C115.904 42.7171 115.885 42.5727 115.939 42.4166L118.334 35.1346C118.404 34.9473 118.516 34.7951 118.67 34.6781C118.832 34.561 119.01 34.5024 119.203 34.5024H119.619C119.82 34.5024 119.997 34.561 120.152 34.6781C120.314 34.7951 120.426 34.9473 120.487 35.1346L122.883 42.4166C122.937 42.5727 122.918 42.7171 122.825 42.8498C122.733 42.9824 122.605 43.0488 122.443 43.0488H122.027C121.841 43.0488 121.668 42.9902 121.506 42.8732C121.351 42.7483 121.247 42.5922 121.193 42.4049L120.823 41.082C120.815 41.0195 120.773 40.9883 120.696 40.9883H118.08C118.01 40.9883 117.968 41.0195 117.952 41.082L117.582 42.4049C117.536 42.5922 117.432 42.7483 117.27 42.8732C117.115 42.9902 116.942 43.0488 116.749 43.0488H116.378Z" fill="#70D944"/>
<path d="M125.63 35.8371V38.3776C125.63 38.44 125.665 38.4712 125.734 38.4712H126.313C127.686 38.4712 128.373 37.9756 128.373 36.9844C128.373 36.1024 127.736 35.6615 126.463 35.6615C126.232 35.6615 125.989 35.681 125.734 35.72C125.665 35.7356 125.63 35.7746 125.63 35.8371ZM124.692 43.0488C124.515 43.0488 124.361 42.9824 124.229 42.8498C124.098 42.7171 124.033 42.561 124.033 42.3815V35.2283C124.033 35.041 124.094 34.8732 124.218 34.7249C124.341 34.5766 124.496 34.4946 124.681 34.479C125.337 34.4166 125.969 34.3854 126.579 34.3854C127.713 34.3854 128.562 34.6 129.125 35.0293C129.689 35.4507 129.97 36.0478 129.97 36.8205C129.97 37.3746 129.82 37.8624 129.519 38.2839C129.226 38.7054 128.828 39.002 128.327 39.1737C128.319 39.1737 128.315 39.1776 128.315 39.1854C128.315 39.201 128.319 39.2088 128.327 39.2088C128.697 39.4429 129.013 39.9034 129.276 40.5902L129.97 42.4283C130.024 42.5766 130.005 42.7171 129.912 42.8498C129.827 42.9824 129.708 43.0488 129.553 43.0488H129.195C128.994 43.0488 128.813 42.9941 128.651 42.8849C128.489 42.7678 128.373 42.6156 128.303 42.4283L127.655 40.6254C127.516 40.2507 127.358 40.0049 127.181 39.8878C127.003 39.7707 126.699 39.7122 126.266 39.7122H125.734C125.665 39.7122 125.63 39.7473 125.63 39.8176V42.3815C125.63 42.561 125.564 42.7171 125.433 42.8498C125.31 42.9824 125.159 43.0488 124.982 43.0488H124.692Z" fill="#70D944"/>
</svg>
