<svg width="130" height="60" fill="#70D944" xmlns="http://www.w3.org/2000/svg"><path d="M50.631 51.214a1.316 1.316 0 000-1.844 1.28 1.28 0 00-1.823 0c-5.117 5.173-11.918 8.021-19.15 8.021-14.932 0-27.08-12.287-27.08-27.391 0-15.104 12.148-27.391 27.08-27.391 14.5 0 26.376 11.585 27.05 26.087h-5.195c-.67-11.62-10.202-20.87-21.854-20.87C17.57 7.826 7.737 17.773 7.737 30s9.834 22.174 21.922 22.174c5.857 0 11.36-2.306 15.5-6.496a1.316 1.316 0 000-1.844 1.28 1.28 0 00-1.824 0c-3.652 3.696-8.51 5.731-13.676 5.731-10.667 0-19.343-8.776-19.343-19.565 0-10.79 8.676-19.565 19.343-19.565 10.23 0 18.61 8.081 19.278 18.26h-5.158c-.655-7.301-6.734-13.043-14.12-13.043-7.822 0-14.185 6.436-14.185 14.348 0 7.912 6.363 14.348 14.185 14.348 3.788 0 7.35-1.492 10.03-4.203a1.316 1.316 0 000-1.844 1.28 1.28 0 00-1.824 0 11.463 11.463 0 01-8.206 3.438c-6.399 0-11.606-5.267-11.606-11.74 0-6.471 5.207-11.738 11.606-11.738 5.957 0 10.824 4.58 11.474 10.434h-7.846c-.534-1.515-1.952-2.608-3.631-2.608-2.133 0-3.868 1.755-3.868 3.913 0 2.157 1.735 3.913 3.868 3.913 1.679 0 3.097-1.093 3.631-2.609h24.74c.713 0 1.29-.584 1.29-1.304 0-16.542-13.305-30-29.658-30C13.305 0 0 13.458 0 30s13.305 30 29.659 30c7.92 0 15.368-3.12 20.972-8.786z" fill="#70D944"/><path d="M52.019 40.005c0 2.107-1.042 3.16-3.125 3.16s-3.125-1.053-3.125-3.16V35.17c0-.18.066-.336.197-.468a.63.63 0 01.463-.2h.324a.63.63 0 01.463.2.644.644 0 01.196.468v4.928c0 .61.12 1.05.36 1.324.246.265.628.398 1.145.398s.895-.133 1.134-.398c.247-.274.37-.715.37-1.323v-4.93c0-.179.066-.335.197-.467a.63.63 0 01.463-.2h.278a.63.63 0 01.463.2.644.644 0 01.197.468v4.835zM55.326 35.837v2.821c0 .055.03.09.093.106.293.039.578.058.856.058.625 0 1.1-.136 1.424-.41.332-.28.498-.678.498-1.194 0-1.038-.641-1.557-1.922-1.557-.278 0-.563.02-.856.059-.062.016-.093.055-.093.117zm-.949 7.212a.63.63 0 01-.463-.2.665.665 0 01-.185-.467v-7.154c0-.187.062-.355.185-.503a.654.654 0 01.463-.246 20.055 20.055 0 011.898-.094c1.158 0 2.026.235 2.604.703.579.46.868 1.131.868 2.014 0 .975-.281 1.713-.844 2.212-.556.5-1.382.75-2.477.75-.255 0-.59-.016-1.007-.047-.062 0-.093.03-.093.093v2.272c0 .179-.066.335-.197.468a.63.63 0 01-.463.199h-.289zM61.96 42.393l-1.482-7.235a.51.51 0 01.105-.456.546.546 0 01.428-.2h.335c.193 0 .36.063.498.188.14.125.224.28.255.468l.96 6.158c0 .008.004.012.012.012.016 0 .023-.004.023-.012l.926-6.158a.782.782 0 01.255-.468.719.719 0 01.497-.188h.695c.193 0 .359.063.498.188.138.125.223.28.254.468l.938 6.158c0 .008.004.012.011.012.008 0 .012-.004.012-.012l.96-6.158a.782.782 0 01.255-.468.719.719 0 01.498-.188h.29c.169 0 .308.067.416.2a.54.54 0 01.116.456l-1.482 7.235a.816.816 0 01-.278.468.762.762 0 01-.509.188h-.613a.762.762 0 01-.764-.656l-.96-6.158c0-.008-.005-.012-.012-.012-.008 0-.012.004-.012.012l-.96 6.158a.76.76 0 01-.267.468.72.72 0 01-.498.188h-.613a.816.816 0 01-.787-.656zM76.351 38.776c0-2.03-.733-3.044-2.199-3.044-1.466 0-2.199 1.014-2.199 3.044 0 2.029.733 3.043 2.2 3.043 1.465 0 2.198-1.014 2.198-3.043zm.614 3.23c-.687.773-1.625 1.16-2.813 1.16-1.188 0-2.13-.386-2.824-1.16-.687-.772-1.03-1.849-1.03-3.23 0-1.382.343-2.459 1.03-3.232.694-.772 1.636-1.159 2.824-1.159s2.126.387 2.813 1.16c.694.772 1.041 1.85 1.041 3.23 0 1.382-.347 2.46-1.041 3.232zM80.916 35.837v2.54c0 .063.035.094.104.094h.579c1.373 0 2.06-.495 2.06-1.487 0-.882-.637-1.323-1.91-1.323-.231 0-.474.02-.73.059-.069.016-.103.055-.103.117zm-.938 7.212a.63.63 0 01-.463-.2.644.644 0 01-.197-.467v-7.154c0-.187.062-.355.186-.503a.654.654 0 01.463-.246 20.052 20.052 0 011.898-.094c1.134 0 1.983.215 2.546.644.563.422.845 1.019.845 1.791 0 .555-.15 1.042-.451 1.464-.294.421-.69.718-1.193.89-.007 0-.011.004-.011.011 0 .016.004.024.011.024.37.234.687.694.95 1.381l.694 1.838a.437.437 0 01-.058.422.403.403 0 01-.359.199h-.358a.952.952 0 01-.544-.164.965.965 0 01-.348-.457l-.648-1.803c-.139-.374-.297-.62-.474-.737-.178-.117-.483-.176-.915-.176h-.532c-.07 0-.104.035-.104.106v2.564c0 .179-.066.335-.197.468a.594.594 0 01-.451.199h-.29zM87.302 43.049a.63.63 0 01-.463-.2.665.665 0 01-.185-.467V35.17c0-.18.062-.336.185-.468a.63.63 0 01.463-.2h.313a.63.63 0 01.463.2.644.644 0 01.196.468v3.032c0 .008.004.012.012.012s.012-.004.012-.012l2.326-3.161a1.21 1.21 0 011.042-.539h.578c.132 0 .228.063.29.188.061.125.05.238-.035.34l-2.662 3.488a.13.13 0 000 .164l2.79 3.828a.31.31 0 01.034.352.313.313 0 01-.3.187h-.58c-.44 0-.783-.18-1.03-.539l-2.453-3.512c0-.008-.004-.012-.012-.012s-.012.004-.012.012v3.384c0 .179-.065.335-.196.468a.63.63 0 01-.463.199h-.313zM95.542 35.837v2.54c0 .063.034.094.104.094h.579c1.373 0 2.06-.495 2.06-1.487 0-.882-.637-1.323-1.91-1.323-.231 0-.475.02-.73.059-.069.016-.103.055-.103.117zm-.938 7.212a.63.63 0 01-.463-.2.644.644 0 01-.197-.467v-7.154c0-.187.062-.355.186-.503a.654.654 0 01.463-.246 20.052 20.052 0 011.898-.094c1.134 0 1.983.215 2.546.644.563.422.845 1.019.845 1.791 0 .555-.15 1.042-.452 1.464-.293.421-.69.718-1.192.89-.007 0-.011.004-.011.011 0 .016.004.024.011.024.37.234.687.694.95 1.381l.694 1.838a.437.437 0 01-.058.422.403.403 0 01-.359.199h-.359a.952.952 0 01-.543-.164.965.965 0 01-.348-.457l-.648-1.803c-.139-.374-.297-.62-.474-.737-.178-.117-.483-.176-.915-.176h-.532c-.07 0-.104.035-.104.106v2.564c0 .179-.066.335-.197.468a.594.594 0 01-.451.199h-.29zM104.298 35.954l-1.018 3.676a.078.078 0 00.011.07c.016.024.035.036.058.036h1.921c.023 0 .043-.012.058-.035a.079.079 0 00.012-.07l-1.019-3.677c0-.008-.004-.012-.011-.012-.008 0-.012.004-.012.012zM101.3 43.05a.442.442 0 01-.382-.2.458.458 0 01-.057-.432l2.395-7.282a1 1 0 01.336-.457.89.89 0 01.532-.176h.417a.86.86 0 01.533.176c.162.117.273.27.335.457l2.396 7.282c.054.156.035.3-.058.433a.44.44 0 01-.382.199h-.416a.872.872 0 01-.521-.176.914.914 0 01-.313-.468l-.37-1.323c-.008-.063-.05-.094-.127-.094h-2.616c-.07 0-.112.032-.128.094l-.37 1.323a.83.83 0 01-.312.468.842.842 0 01-.521.176h-.371zM110.563 35.86v5.83c0 .055.031.09.093.106.247.04.478.059.694.059.903 0 1.567-.246 1.991-.738.425-.5.637-1.319.637-2.459 0-1.022-.216-1.771-.648-2.247-.432-.476-1.092-.714-1.98-.714-.216 0-.447.02-.694.058-.062.016-.093.05-.093.105zm-.949 7.224a.724.724 0 01-.474-.246.778.778 0 01-.185-.515v-7.095c0-.195.061-.363.185-.503a.704.704 0 01.474-.258 15.171 15.171 0 011.655-.082c1.374 0 2.423.363 3.149 1.09.733.725 1.099 1.786 1.099 3.183 0 1.5-.366 2.627-1.099 3.384-.726.75-1.775 1.124-3.149 1.124a15.17 15.17 0 01-1.655-.082zM119.376 35.954l-1.018 3.676a.078.078 0 00.011.07c.016.024.035.036.058.036h1.921c.023 0 .043-.012.058-.035a.079.079 0 00.012-.07l-1.019-3.677c0-.008-.004-.012-.011-.012-.008 0-.012.004-.012.012zm-2.998 7.095a.442.442 0 01-.382-.2.458.458 0 01-.057-.432l2.395-7.282a1 1 0 01.336-.457.89.89 0 01.533-.176h.416a.86.86 0 01.533.176c.162.117.274.27.335.457l2.396 7.282c.054.156.035.3-.058.433a.44.44 0 01-.382.199h-.416a.872.872 0 01-.521-.176.914.914 0 01-.313-.468l-.37-1.323c-.008-.063-.05-.094-.127-.094h-2.616c-.07 0-.112.032-.128.094l-.37 1.323a.83.83 0 01-.312.468.842.842 0 01-.521.176h-.371zM125.63 35.837v2.54c0 .063.035.094.104.094h.579c1.373 0 2.06-.495 2.06-1.487 0-.882-.637-1.323-1.91-1.323-.231 0-.474.02-.729.059-.069.016-.104.055-.104.117zm-.938 7.212a.632.632 0 01-.463-.2.644.644 0 01-.196-.467v-7.154c0-.187.061-.355.185-.503a.654.654 0 01.463-.246 20.046 20.046 0 011.898-.094c1.134 0 1.983.215 2.546.644.564.422.845 1.019.845 1.791 0 .555-.15 1.042-.451 1.464a2.333 2.333 0 01-1.192.89c-.008 0-.012.004-.012.011 0 .016.004.024.012.024.37.234.686.694.949 1.381l.694 1.838a.436.436 0 01-.058.422.403.403 0 01-.359.199h-.358a.95.95 0 01-.544-.164.971.971 0 01-.348-.457l-.648-1.803c-.139-.374-.297-.62-.474-.737-.178-.117-.482-.176-.915-.176h-.532c-.069 0-.104.035-.104.106v2.564c0 .179-.066.335-.197.468a.593.593 0 01-.451.199h-.29z" /></svg>